<?xml version="1.0" standalone="no"?>
<!DOCTYPE svg PUBLIC "-//W3C//DTD SVG 20010904//EN"
 "http://www.w3.org/TR/2001/REC-SVG-20010904/DTD/svg10.dtd">
<svg version="1.0" xmlns="http://www.w3.org/2000/svg"
 width="260.000000pt" height="260.000000pt" viewBox="0 0 260.000000 260.000000"
 preserveAspectRatio="xMidYMid meet">
<metadata>
Created by potrace 1.11, written by Peter Selinger 2001-2013
</metadata>
<g transform="translate(0.000000,260.000000) scale(0.100000,-0.100000)"
fill="#000000" stroke="none">
<path d="M2215 2563 c-28 -4 -32 -10 -70 -116 -37 -103 -42 -112 -65 -111 -14
0 -97 9 -185 19 -224 27 -606 27 -760 1 -135 -22 -297 -74 -384 -123 -133 -74
-240 -206 -256 -317 -4 -23 -2 -69 4 -102 41 -223 234 -363 806 -589 439 -173
560 -251 611 -392 31 -87 11 -163 -63 -243 -122 -132 -355 -199 -650 -187
-263 10 -462 86 -616 236 -64 62 -69 75 -88 223 l-12 96 -45 7 c-24 4 -45 5
-46 3 -2 -2 -10 -131 -19 -288 -12 -205 -24 -321 -42 -415 -14 -72 -28 -147
-31 -169 l-7 -39 49 7 c27 4 52 11 55 14 3 4 28 71 54 150 44 131 50 143 69
138 63 -18 260 -46 396 -57 458 -35 882 38 1134 195 81 50 183 152 214 212 91
178 59 375 -87 523 -116 120 -295 212 -716 371 -309 116 -448 180 -521 238
-55 43 -94 109 -94 157 0 42 36 109 78 146 51 45 163 95 257 115 99 21 343 24
430 6 161 -35 295 -96 381 -174 58 -54 62 -65 72 -195 l7 -86 45 -13 c25 -8
48 -14 51 -14 3 0 9 48 13 108 11 176 35 327 103 645 6 29 4 30 -72 20z"/>
</g>
</svg>
