<?xml version="1.0" standalone="no"?>
<!DOCTYPE svg PUBLIC "-//W3C//DTD SVG 20010904//EN"
 "http://www.w3.org/TR/2001/REC-SVG-20010904/DTD/svg10.dtd">
<svg version="1.0" xmlns="http://www.w3.org/2000/svg"
 width="260.000000pt" height="260.000000pt" viewBox="0 0 260.000000 260.000000"
 preserveAspectRatio="xMidYMid meet">
<metadata>
Created by potrace 1.11, written by Peter Selinger 2001-2013
</metadata>
<g transform="translate(0.000000,260.000000) scale(0.100000,-0.100000)"
fill="#000000" stroke="none">
<path d="M2203 2453 c-17 -3 -28 -23 -54 -99 -18 -52 -37 -101 -43 -109 -9
-12 -27 -12 -116 0 -292 39 -668 44 -865 11 -421 -71 -674 -277 -626 -512 17
-89 48 -143 126 -219 118 -116 285 -202 705 -359 346 -131 491 -211 557 -309
80 -120 44 -251 -97 -344 -124 -83 -314 -128 -540 -127 -251 2 -467 67 -622
188 -94 75 -107 98 -125 229 -16 115 -16 115 -46 121 -68 14 -62 29 -76 -227
-13 -239 -26 -347 -62 -525 -12 -56 -19 -105 -17 -108 3 -3 27 -1 53 3 l47 8
43 120 c62 179 48 165 149 144 285 -58 698 -63 996 -13 213 36 437 125 554
221 65 53 139 152 156 210 52 174 -8 349 -162 470 -135 107 -267 168 -690 322
-411 150 -514 202 -569 290 -34 53 -37 97 -10 150 61 119 239 189 504 199 205
7 373 -27 515 -104 144 -78 170 -114 179 -247 l6 -95 43 -11 c63 -16 64 -15
64 37 0 108 34 335 81 549 16 73 29 135 29 138 0 6 -54 4 -87 -2z"/>
</g>
</svg>
